<?xml version="1.0" standalone="no"?>
<!DOCTYPE svg PUBLIC "-//W3C//DTD SVG 20010904//EN"
 "http://www.w3.org/TR/2001/REC-SVG-20010904/DTD/svg10.dtd">
<svg version="1.0" xmlns="http://www.w3.org/2000/svg"
 width="595.000000pt" height="595.000000pt" viewBox="0 0 595.000000 595.000000"
 preserveAspectRatio="xMidYMid meet">
<metadata>
Created by potrace 1.14, written by Peter Selinger 2001-2017
</metadata>
<g transform="translate(0.000000,595.000000) scale(0.100000,-0.100000)"
fill="#000000" stroke="none">
<path d="M2035 4784 c0 -475 -2 -864 -5 -865 -3 0 -392 -2 -865 -2 l-860 -2
-3 -37 c-2 -26 1 -38 10 -39 7 -1 398 -2 868 -3 l855 -1 0 -847 c0 -560 -3
-849 -10 -851 -5 -2 -395 -3 -867 -2 l-856 1 2 -41 1 -40 860 0 c473 1 862 -2
865 -6 3 -4 5 -395 5 -869 0 -921 -2 -879 45 -874 8 1 20 2 26 3 7 1 10 270
10 873 l0 873 834 0 c459 1 842 -1 850 -3 14 -3 16 -99 15 -865 -1 -474 1
-867 2 -872 3 -9 42 -12 74 -6 3 1 6 390 6 865 0 475 3 867 6 872 3 5 372 9
876 9 l871 0 0 40 0 41 -876 0 -877 0 1 834 c0 459 1 842 1 850 1 14 93 16
874 16 l872 -1 3 41 3 40 -876 0 -875 -1 -1 30 c0 17 -1 406 -2 865 l-2 834
-35 2 c-19 1 -37 -2 -40 -6 -3 -4 -5 -393 -5 -864 1 -579 -3 -857 -10 -858 -9
-3 -1652 -1 -1680 1 -7 1 -10 296 -10 863 l0 862 -40 2 -40 1 0 -863z m1776
-954 c1 -3 2 -384 3 -847 1 -748 0 -842 -14 -845 -8 -2 -388 -4 -843 -3 -609
0 -830 3 -835 12 -5 8 -8 1596 -3 1673 1 14 95 16 846 16 465 0 846 -3 846 -6z"/>
<path d="M2496 3451 l-160 -160 157 -158 158 -157 -158 -158 -158 -158 163
-162 162 -163 158 158 157 157 157 -155 c86 -85 159 -155 161 -155 6 0 312
310 315 319 2 5 -65 76 -148 159 -82 82 -150 154 -150 159 0 4 68 76 150 158
83 82 150 153 150 157 0 10 -308 318 -317 318 -5 0 -76 -67 -158 -150 -82 -82
-153 -150 -158 -150 -4 0 -75 68 -159 150 -83 83 -154 150 -157 150 -3 0 -78
-72 -165 -159z"/>
<path d="M2858 5459 c-51 -8 -141 -35 -173 -52 -11 -6 -22 -11 -25 -12 -3 0
-30 -16 -60 -35 -263 -169 -377 -487 -283 -790 64 -208 249 -384 468 -446 90
-26 268 -27 353 -3 255 72 441 267 499 521 4 18 8 85 8 148 0 100 -4 126 -29
204 -77 233 -288 420 -521 461 -58 10 -183 12 -237 4z m187 -375 c42 -8 115
-52 148 -88 16 -17 40 -55 54 -85 74 -156 0 -347 -162 -416 -47 -20 -142 -27
-194 -13 -227 58 -310 334 -154 508 78 87 185 120 308 94z"/>
<path d="M4273 3457 c-84 -84 -153 -158 -153 -165 0 -6 68 -80 151 -162 l152
-151 -39 -41 c-21 -22 -90 -90 -151 -151 -62 -62 -113 -117 -113 -124 0 -7 70
-83 156 -169 135 -135 158 -153 172 -142 8 7 80 77 159 156 l144 143 143 -143
c78 -79 150 -149 158 -156 14 -11 37 7 172 142 86 86 156 161 156 167 0 6 -62
73 -137 148 -76 76 -144 145 -152 154 -11 15 5 34 138 167 83 83 151 156 151
163 0 13 -302 317 -314 317 -4 0 -77 -69 -163 -154 l-154 -153 -154 153 c-84
85 -157 154 -162 154 -4 0 -77 -69 -160 -153z"/>
</g>
</svg>
