<svg version="1.1" viewBox="0.0 0.0 594.8792650918635 593.989501312336" fill="none" stroke="none" stroke-linecap="square" stroke-miterlimit="10" xmlns:xlink="http://www.w3.org/1999/xlink" xmlns="http://www.w3.org/2000/svg"><clipPath id="p.0"><path d="m0 0l594.8793 0l0 593.9895l-594.8793 0l0 -593.9895z" clip-rule="nonzero"/></clipPath><g clip-path="url(#p.0)"><path fill="#000000" fill-opacity="0.0" d="m0 0l594.8793 0l0 593.9895l-594.8793 0z" fill-rule="evenodd"/><path fill="#000000" fill-opacity="0.0" d="m207.5643 30.401575l0 533.8898" fill-rule="evenodd"/><path stroke="#000000" stroke-width="8.0" stroke-linejoin="round" stroke-linecap="butt" d="m207.5643 30.401575l0 533.8898" fill-rule="evenodd"/><path fill="#000000" fill-opacity="0.0" d="m385.61154 30.401575l0 533.8898" fill-rule="evenodd"/><path stroke="#000000" stroke-width="8.0" stroke-linejoin="round" stroke-linecap="butt" d="m385.61154 30.401575l0 533.8898" fill-rule="evenodd"/><path fill="#000000" fill-opacity="0.0" d="m565.00525 207.37007l-534.80316 0" fill-rule="evenodd"/><path stroke="#000000" stroke-width="8.0" stroke-linejoin="round" stroke-linecap="butt" d="m565.00525 207.37007l-534.80316 0" fill-rule="evenodd"/><path fill="#000000" fill-opacity="0.0" d="m565.00525 385.44882l-534.80316 0" fill-rule="evenodd"/><path stroke="#000000" stroke-width="8.0" stroke-linejoin="round" stroke-linecap="butt" d="m565.00525 385.44882l-534.80316 0" fill-rule="evenodd"/><path fill="#9fc5e8" d="m236.38567 265.81308l29.684647 -29.684631l31.533356 31.533356l31.533386 -31.533356l29.684631 29.684631l-31.533356 31.533386l31.533356 31.533356l-29.684631 29.684662l-31.533386 -31.533386l-31.533356 31.533386l-29.684647 -29.684662l31.533371 -31.533356z" fill-rule="evenodd"/><path stroke="#0000ff" stroke-width="4.0" stroke-linejoin="round" stroke-linecap="butt" d="m236.38567 265.81308l29.684647 -29.684631l31.533356 31.533356l31.533386 -31.533356l29.684631 29.684631l-31.533356 31.533386l31.533356 31.533356l-29.684631 29.684662l-31.533386 -31.533386l-31.533356 31.533386l-29.684647 -29.684662l31.533371 -31.533356z" fill-rule="evenodd"/><path fill="#ea9999" d="m230.19423 116.66929l0 0c0 -36.66823 29.72548 -66.3937 66.39369 -66.3937l0 0c17.608704 0 34.496216 6.9950333 46.94745 19.446266c12.451233 12.451233 19.446259 29.33873 19.446259 46.947433l0 0c0 36.668236 -29.725464 66.3937 -66.39371 66.3937l0 0c-36.668213 0 -66.39369 -29.725464 -66.39369 -66.3937zm33.196854 0l0 0c0 18.334114 14.862732 33.196846 33.19684 33.196846c18.334106 0 33.19687 -14.862732 33.19687 -33.196846c0 -18.334114 -14.862762 -33.196846 -33.19687 -33.196846l0 0c-18.334106 0 -33.19684 14.862732 -33.19684 33.196846z" fill-rule="evenodd"/><path stroke="#ff0000" stroke-width="4.0" stroke-linejoin="round" stroke-linecap="butt" d="m230.19423 116.66929l0 0c0 -36.66823 29.72548 -66.3937 66.39369 -66.3937l0 0c17.608704 0 34.496216 6.9950333 46.94745 19.446266c12.451233 12.451233 19.446259 29.33873 19.446259 46.947433l0 0c0 36.668236 -29.725464 66.3937 -66.39371 66.3937l0 0c-36.668213 0 -66.39369 -29.725464 -66.39369 -66.3937zm33.196854 0l0 0c0 18.334114 14.862732 33.196846 33.19684 33.196846c18.334106 0 33.19687 -14.862732 33.19687 -33.196846c0 -18.334114 -14.862762 -33.196846 -33.19687 -33.196846l0 0c-18.334106 0 -33.19684 14.862732 -33.19684 33.196846z" fill-rule="evenodd"/><path fill="#9fc5e8" d="m413.63763 265.81308l29.684631 -29.684631l31.533386 31.533356l31.533356 -31.533356l29.684662 29.684631l-31.533386 31.533386l31.533386 31.533356l-29.684662 29.684662l-31.533356 -31.533386l-31.533386 31.533386l-29.684631 -29.684662l31.533356 -31.533356z" fill-rule="evenodd"/><path stroke="#0000ff" stroke-width="4.0" stroke-linejoin="round" stroke-linecap="butt" d="m413.63763 265.81308l29.684631 -29.684631l31.533386 31.533356l31.533356 -31.533356l29.684662 29.684631l-31.533386 31.533386l31.533386 31.533356l-29.684662 29.684662l-31.533356 -31.533386l-31.533386 31.533386l-29.684631 -29.684662l31.533356 -31.533356z" fill-rule="evenodd"/></g></svg>